# xmcd
#
# Track frame offsets:
#	150
#	15475
#	26646
#	46045
#	60863
#	76258
#	94524
#	109942
#	124103
#	140009
#	158573
#	175048
#	191458
#	209883
#	231149
#	249172
#	266739
#	284579
#	301873
#	318049
#	334403
#
# Disc length: 4753 seconds
#
# Revision: 0
# Processed by: cddbd v1.5.2PL0 Copyright (c) Steve Scherf et al.
# Submitted via: audiograbber 1.83.01
#
DISCID=16128f15
DTITLE=XMIX - Urban Radio April 2010
DYEAR=2010
DGENRE=urban
TTITLE0=2 Pistols - Jason Derulo - Redonkulous (128 BPM)
TTITLE1=Damian Marley and Nas - As We Enter (120 BPM)
TTITLE2=Ludacris - Sexting (120 BPM)
TTITLE3=Monica - Everything To Me (112 BPM)
TTITLE4=Lil Jon - Mario and R. Kelly - Miss Chocolate (108 BPM)
TTITLE5=DJ Webstar - Ricky Blaze - Tipsy (100 BPM)
TTITLE6=Fat Joe - Young Jeezy - Ha Ha (Slow Down Son) (95 BPM)
TTITLE7=Maino - Bring It Back DJ (92 BPM)
TTITLE8=Sean Kingston - Hot Like The Summer (88 BPM)
TTITLE9=The-Dream - Love King (84 BPM)
TTITLE10=Ludacris - Nicki Minaj - My Chick Bad  (84 BPM)
TTITLE11=Mann - Jason Derulo - Text (82 BPM)
TTITLE12=Chris Brown - Sing Like Me (82 BPM)
TTITLE13=Usher - There Goes My Baby (77 BPM)
TTITLE14=Young Jeezy - Plies - Lose My Mind (77 BPM)
TTITLE15=Drake - Over  (76 BPM)
TTITLE16=Cypress Hill - Pitbull - Armada Latina (76 BPM)
TTITLE17=DJ Khaled - T-Pain - Ludacris - All I Do I Win (75 BPM)
TTITLE18=Corinne Bailey Rae - Closer (70 BPM)
TTITLE19=K. Michelle - Fallin' (68 BPM)
TTITLE20=Roscoe Dash - Soulja Boy Tell 'Em - All The Way Turnt Up (66 BPM)
EXTD=
EXTT0=
EXTT1=
EXTT2=
EXTT3=
EXTT4=
EXTT5=
EXTT6=
EXTT7=
EXTT8=
EXTT9=
EXTT10=
EXTT11=
EXTT12=
EXTT13=
EXTT14=
EXTT15=
EXTT16=
EXTT17=
EXTT18=
EXTT19=
EXTT20=
PLAYORDER=
